<svg id="Layer_1" data-name="Layer 1" xmlns="http://www.w3.org/2000/svg" xmlns:xlink="http://www.w3.org/1999/xlink" viewBox="0 0 317.6 58.4"><defs><style>.cls-1{fill:url(#linear-gradient);}.cls-2{fill:url(#linear-gradient-2);}.cls-3{fill:#fff;}</style><linearGradient id="linear-gradient" x1="40.06" y1="58.59" x2="40.06" y2="17.95" gradientTransform="matrix(1, 0, 0, -1, 0, 72)" gradientUnits="userSpaceOnUse"><stop offset="0" stop-color="#38a9ff"/><stop offset="1" stop-color="#61a9ff"/></linearGradient><linearGradient id="linear-gradient-2" x1="40.27" y1="58.59" x2="40.27" y2="17.95" gradientTransform="matrix(1, 0, 0, -1, 0, 72)" gradientUnits="userSpaceOnUse"><stop offset="0" stop-color="#ffdf23"/><stop offset="1" stop-color="#ff7907"/></linearGradient></defs><path class="cls-1" d="M16.05,35a23.51,23.51,0,0,0,1.1,7.11l-3.49,5.6,1.19,2.14h0l8.83-11.59A17,17,0,0,1,23.45,35a16.59,16.59,0,0,1,33.18,0,16,16,0,0,1-.24,2.76l9,11.72.1-.17,1.18-2.12-3.55-5.72a24.13,24.13,0,0,0-.25-13.58l3.48-5.55-1.18-2.13L64,18.05l-6.75.25a24,24,0,0,0-11.85-6.65L42.14,5.8H37.23l-3.11,6a23.93,23.93,0,0,0-11.69,7l-6.57-.24-1.19,2.13-1.18,2.12L17,28.49A23.65,23.65,0,0,0,16.05,35Z" transform="translate(-9.23 -5.8)"/><path class="cls-2" d="M66.11,57.29l-4.59-6-6.75-8.83L48,33.63,40.22,23.47,32.48,33.63l-7,9.24-6.84,9-4.16,5.45-5.2,6.83h5.7L23.8,52.57a23.92,23.92,0,0,0,11,5.75l3.07,5.8h4.9l3.16-5.93a23.85,23.85,0,0,0,10.54-5.84L65.52,64.2h5.79ZM40,51.55a16.58,16.58,0,0,1-11.69-4.84L40.22,31.17,51.89,46.43A16.63,16.63,0,0,1,40,51.55Z" transform="translate(-9.23 -5.8)"/><path class="cls-3" d="M105.77,40.65H95.29L93.23,45.5h-4l9.43-21h3.84l9.46,21h-4.1Zm-1.29-3.06-4-9.16-3.92,9.16Z" transform="translate(-9.23 -5.8)"/><path class="cls-3" d="M140,36.49a5.37,5.37,0,0,1,1,3.31A4.88,4.88,0,0,1,138.91,44a10.57,10.57,0,0,1-6.11,1.48H122.38v-21h9.82A9.71,9.71,0,0,1,137.92,26a4.67,4.67,0,0,1,2,4,5.23,5.23,0,0,1-.72,2.76,5,5,0,0,1-2,1.85A5.54,5.54,0,0,1,140,36.49Zm-13.72-8.9v5.77h5.51a5.54,5.54,0,0,0,3.13-.73A2.4,2.4,0,0,0,136,30.49a2.45,2.45,0,0,0-1.09-2.17,5.62,5.62,0,0,0-3.13-.73Zm10.8,11.82c0-2-1.5-3-4.52-3h-6.29v6h6.29C135.58,42.43,137.08,41.43,137.08,39.41Z" transform="translate(-9.23 -5.8)"/><path class="cls-3" d="M153,24.52h3.89V42.18h11v3.3H153Z" transform="translate(-9.23 -5.8)"/><path class="cls-3" d="M178.66,24.5h3.89v21h-3.89Z" transform="translate(-9.23 -5.8)"/><path class="cls-3" d="M215.24,45.5V31.61L208.36,43.1h-1.74l-6.88-11.31V45.5H196v-21h3.2l8.32,13.89,8.17-13.89h3.21v21Z" transform="translate(-9.23 -5.8)"/><path class="cls-3" d="M232.37,24.5h3.89v21h-3.89Z" transform="translate(-9.23 -5.8)"/><path class="cls-3" d="M268.32,24.52v21h-3.2L253.56,31.29V45.48H249.7v-21h3.2l11.56,14.19V24.52Z" transform="translate(-9.23 -5.8)"/><path class="cls-3" d="M295.32,40.65H284.84l-2.06,4.85h-4l9.43-21H292l9.46,21h-4.07ZM294,37.59l-4-9.16-3.92,9.16Z" transform="translate(-9.23 -5.8)"/><path class="cls-3" d="M311.94,24.52h3.89V42.18h11v3.3H311.94Z" transform="translate(-9.23 -5.8)"/></svg>