<svg id="Layer_1" data-name="Layer 1" xmlns="http://www.w3.org/2000/svg" xmlns:xlink="http://www.w3.org/1999/xlink" viewBox="0 0 300 130"><defs><style>.cls-1{fill:url(#linear-gradient);}.cls-2{fill:url(#linear-gradient-2);}.cls-3{fill:url(#linear-gradient-3);}.cls-4{fill:url(#linear-gradient-4);}.cls-5{fill:url(#linear-gradient-5);}.cls-6{fill:url(#linear-gradient-6);}.cls-7{fill:url(#linear-gradient-7);}.cls-8{fill:url(#linear-gradient-8);}.cls-9{fill:url(#linear-gradient-9);}.cls-10{fill:url(#linear-gradient-10);}.cls-11{fill:url(#linear-gradient-11);}.cls-12{fill:#ff7920;}.cls-13{fill:#38a9fc;}</style><linearGradient id="linear-gradient" x1="9.85" y1="47.64" x2="113.93" y2="51.72" gradientUnits="userSpaceOnUse"><stop offset="0" stop-color="#ff7907"/><stop offset="1" stop-color="#ffbc19"/></linearGradient><linearGradient id="linear-gradient-2" x1="9.23" y1="63.4" x2="113.31" y2="67.49" xlink:href="#linear-gradient"/><linearGradient id="linear-gradient-3" x1="9.45" y1="57.77" x2="113.53" y2="61.85" xlink:href="#linear-gradient"/><linearGradient id="linear-gradient-4" x1="24.83" y1="59.28" x2="63.86" y2="35.56" gradientUnits="userSpaceOnUse"><stop offset="0" stop-color="#38a9ff"/><stop offset="1" stop-color="#61a9ff"/></linearGradient><linearGradient id="linear-gradient-5" x1="34.74" y1="75.58" x2="73.77" y2="51.85" xlink:href="#linear-gradient-4"/><linearGradient id="linear-gradient-6" x1="44.22" y1="91.17" x2="83.25" y2="67.44" xlink:href="#linear-gradient-4"/><linearGradient id="linear-gradient-7" x1="26.81" y1="62.53" x2="65.84" y2="38.8" xlink:href="#linear-gradient-4"/><linearGradient id="linear-gradient-8" x1="10.58" y1="29.07" x2="114.65" y2="33.15" xlink:href="#linear-gradient"/><linearGradient id="linear-gradient-9" x1="8.03" y1="94.08" x2="112.11" y2="98.16" xlink:href="#linear-gradient"/><linearGradient id="linear-gradient-10" x1="9.31" y1="61.43" x2="113.39" y2="65.52" xlink:href="#linear-gradient"/><linearGradient id="linear-gradient-11" x1="38.64" y1="81.99" x2="77.67" y2="58.27" xlink:href="#linear-gradient-4"/></defs><path class="cls-1" d="M30.82,45.82l-.46.15c-.54.18-1.09.37-1.62.57.13,1.16.3,2.31.51,3.46l.21,1c.67-.22,1.33-.42,2-.61A28.72,28.72,0,0,1,30.82,45.82Z"/><path class="cls-2" d="M72.66,80.45c-2,.31-4,.53-6,.7s-4,.28-6.06.35c-1.53,0-3.05.06-4.57,0l-1.48,0c-1.87,0-3.73-.11-5.59-.25-.64,0-1.27-.09-1.9-.15-.9-.08-1.79-.17-2.68-.28l-1.88-.23-.75-.11c-.86-.12-1.73-.26-2.59-.41a74.44,74.44,0,0,1-8.52-2,42.71,42.71,0,0,1-11.29-4.91,23.21,23.21,0,0,1-2.56-1.9A16.6,16.6,0,0,1,14.46,69a11.69,11.69,0,0,1-1.75-3A10,10,0,0,1,12,62.45a10.53,10.53,0,0,1,.64-3.57,12.19,12.19,0,0,1,1.69-3.05,17.82,17.82,0,0,1,2.26-2.47,23,23,0,0,1,2.54-2,38.08,38.08,0,0,1,6.73-3.68c.16,1,.33,1.94.53,2.9.1.48.21,1,.32,1.46l-.37.14a30.59,30.59,0,0,0-5,2.52,20.65,20.65,0,0,0-2.18,1.59,13.86,13.86,0,0,0-1.82,1.86,6.5,6.5,0,0,0-.15,8.73,13.53,13.53,0,0,0,1.78,2,20.22,20.22,0,0,0,2.16,1.7,39.31,39.31,0,0,0,10.33,4.79c1.84.56,3.71,1.06,5.61,1.45,0,0,0,0,0,0,1.55.31,3.11.59,4.68.81l1.08.14.43,0c.9.11,1.81.2,2.71.27s1.79.14,2.68.18h0c1.42.07,2.84.1,4.27.1h1.56c2,0,3.89-.14,5.83-.33s3.86-.45,5.77-.79,3.79-.78,5.65-1.26l.52-.14A25.3,25.3,0,0,1,72.66,80.45Z"/><path class="cls-3" d="M98.84,62.45A12.18,12.18,0,0,1,98,66.64,13.38,13.38,0,0,1,96,70a20.32,20.32,0,0,1-5.34,4.57,37.25,37.25,0,0,1-8.24,3.65c-.15-.91-.33-1.82-.52-2.71s-.47-2-.75-3L82.37,72A31.41,31.41,0,0,0,87,69.16a20.72,20.72,0,0,0,1.94-1.61,12.52,12.52,0,0,0,1.51-1.74,6.89,6.89,0,0,0,.93-1.74,5,5,0,0,0,.28-1.62,5.12,5.12,0,0,0-.35-1.58,6.38,6.38,0,0,0-1-1.66,13.12,13.12,0,0,0-1.55-1.65,19.22,19.22,0,0,0-2-1.5,31.27,31.27,0,0,0-4.64-2.56,48.2,48.2,0,0,0-5.15-2c-1.77-.59-3.59-1.1-5.43-1.54l-1-.23c-1.51-.33-3-.62-4.57-.87l-.37,0c-.85-.13-1.69-.24-2.53-.34H63c-.89-.11-1.79-.2-2.68-.28h0c-.95-.08-1.9-.15-2.85-.2s-1.93-.09-2.9-.12c-1.93,0-3.85,0-5.77,0s-3.84.21-5.75.41c-1.53.17-3.05.37-4.56.61-.06-.33-.11-.67-.15-1A25,25,0,0,1,38.06,44s0-.07,0-.11a86.3,86.3,0,0,1,12.49-1.65c1.32-.08,2.63-.13,3.95-.17s2.4,0,3.61,0h.13l2.39.06c1,0,2,.1,3,.17l1.58.13c.51,0,1,.09,1.54.15.74.08,1.49.17,2.23.27q1.95.26,3.9.6Q76,44,79,44.85A42.5,42.5,0,0,1,90.82,50a26.82,26.82,0,0,1,2.76,2.1c.22.19.44.41.66.61s.43.41.64.64l.62.68c.21.24.4.5.59.75a13.9,13.9,0,0,1,2,3.47A12.06,12.06,0,0,1,98.84,62.45Z"/><path class="cls-4" d="M64.25,41.28l-.6,1c-1-.07-2-.13-3-.17l-2.39-.06A56.67,56.67,0,0,0,53,36.57a45.64,45.64,0,0,0-4.47-3.65,30.52,30.52,0,0,0-4.89-2.85,16.86,16.86,0,0,0-5.2-1.44,11.09,11.09,0,0,0-2.52.1,7.42,7.42,0,0,0-4.22,2.33,10.72,10.72,0,0,0-1.45,2.12,16.75,16.75,0,0,0-1.55,5.25,32.85,32.85,0,0,0,0,8.11c.13,1.16.3,2.31.51,3.46l.21,1a62.91,62.91,0,0,0,3.2,10.3q1.13,2.74,2.46,5.42C36,68.54,37,70.27,38,72s2.12,3.36,3.28,5l.48.65c-1.57-.22-3.13-.5-4.68-.81,0,0,0,0,0,0-.63-1-1.25-2.11-1.84-3.18A93.9,93.9,0,0,1,30,62.43c-.74-1.92-1.44-3.86-2-5.84-.46-1.5-.88-3-1.23-4.55-.11-.49-.22-1-.32-1.46-.2-1-.37-1.93-.53-2.9A37.5,37.5,0,0,1,25.51,38a20.13,20.13,0,0,1,1.71-6.36,14.62,14.62,0,0,1,1.89-2.93,11.15,11.15,0,0,1,6.11-3.63,14.38,14.38,0,0,1,3.51-.27,20.4,20.4,0,0,1,6.51,1.54,41.41,41.41,0,0,1,10.84,6.74A67.79,67.79,0,0,1,64.25,41.28Z"/><path class="cls-5" d="M60.26,48.18c-.95-.08-1.9-.15-2.85-.2.64.64,1.26,1.3,1.86,2l1-1.77Zm-9.84,27h0l-1.74,3c1.42.07,2.84.1,4.27.1C52.08,77.32,51.24,76.27,50.42,75.21Z"/><path class="cls-6" d="M82.75,88.73c-.07.57-.18,1.15-.27,1.73l-.19.87c-.06.29-.13.59-.22.88l-.25.87c-.09.3-.21.59-.31.88a15.45,15.45,0,0,1-3,5.05,13.84,13.84,0,0,1-3.25,2.63,13.59,13.59,0,0,1-3.92,1.42,15.55,15.55,0,0,1-4,.18,21.09,21.09,0,0,1-6.9-1.95A39.42,39.42,0,0,1,50,93.64,62.51,62.51,0,0,1,45.66,89c-.63-.75-1.25-1.52-1.85-2.29l2.24-3.9a58.89,58.89,0,0,0,7.38,6.86,47.89,47.89,0,0,0,4.71,3.22,30,30,0,0,0,4.92,2.38,15.64,15.64,0,0,0,4.8,1A9.23,9.23,0,0,0,70,96.11a6.89,6.89,0,0,0,1.74-.7,7,7,0,0,0,1.42-1.21,9,9,0,0,0,1.11-1.73,15.49,15.49,0,0,0,1.29-4.65,28.83,28.83,0,0,0,.21-4.19,13.26,13.26,0,0,1-.58,2.46,9.22,9.22,0,0,1-1.25,2.46A7.57,7.57,0,0,1,69,91.66a9.49,9.49,0,0,1-2.8.12,16.23,16.23,0,0,1-5-1.38,34,34,0,0,1-8.15-5.23,53.56,53.56,0,0,1-4.2-3.89c1.86.14,3.72.22,5.59.25l1.48,0,.18.18a29.62,29.62,0,0,0,6.8,5A11.94,11.94,0,0,0,66.66,88a4.45,4.45,0,0,0,5.26-3.1A12.18,12.18,0,0,0,72.65,81c0-.19,0-.37,0-.55a25.3,25.3,0,0,0-.38-4.65c-.18-1.12-.42-2.24-.71-3.35-.37-1.42-.81-2.83-1.32-4.21s-1.09-2.76-1.71-4.1-1.31-2.66-2-4S65,57.62,64.19,56.37c-.51-.78-1-1.56-1.61-2.32l1.91-3.33,0,0,1.08-1.88.37,0c1.53.25,3.06.54,4.57.87.55.84,1.08,1.69,1.61,2.55,1.07,1.78,2.1,3.6,3.06,5.47s1.85,3.76,2.68,5.69a73.28,73.28,0,0,1,3.22,9.14c.28,1,.52,2,.75,3s.37,1.8.52,2.71A37.64,37.64,0,0,1,82.75,88.73Z"/><path class="cls-7" d="M58.12,42.08c-1.21,0-2.41,0-3.61,0s-2.63.09-3.95.17c-.59-.39-1.18-.77-1.78-1.13a24.42,24.42,0,0,0-3.59-1.78,11.24,11.24,0,0,0-3.33-.81,4.42,4.42,0,0,0-1.26.08,2.29,2.29,0,0,0-1.46,1,4.17,4.17,0,0,0-.54,1.1,10.27,10.27,0,0,0-.53,3.19s0,.07,0,.11a25,25,0,0,0,.22,3.91c0,.33.09.67.15,1,.16,1,.36,2,.61,3.07.32,1.36.71,2.73,1.16,4.09s.95,2.7,1.5,4,1.16,2.65,1.8,3.95,1.35,2.58,2.08,3.85c.56.95,1.13,1.9,1.73,2.83L44.3,76q-1.9-2.44-3.62-5A83.4,83.4,0,0,1,36,62.75c-.7-1.42-1.36-2.88-2-4.36s-1.15-3-1.63-4.57c-.33-1.1-.64-2.22-.88-3.38a28.72,28.72,0,0,1-.65-4.62c0-.64-.06-1.3-.05-2a17.08,17.08,0,0,1,1-5.63,11,11,0,0,1,1.56-2.91A9.66,9.66,0,0,1,36,32.86a9.76,9.76,0,0,1,3.4-1.23,11.2,11.2,0,0,1,3.27,0A16.51,16.51,0,0,1,48,33.43a32.27,32.27,0,0,1,7.84,6.12C56.6,40.37,57.37,41.22,58.12,42.08Z"/><path class="cls-8" d="M83,28.69a8.64,8.64,0,0,1-8.64,8.64,8.21,8.21,0,0,1-2-.24L69,42.87c-.74-.1-1.49-.19-2.23-.27-.51-.06-1-.11-1.54-.15l-1.58-.13.6-1,3.81-6.64A8.63,8.63,0,1,1,83,28.69Z"/><path class="cls-9" d="M47,81.13l-1,1.68-2.24,3.9L39.05,95a8.62,8.62,0,1,1-5.88-2.32,7.81,7.81,0,0,1,1.47.13l6-10.43,1.07-1.86.75.11,1.88.23C45.23,81,46.12,81.05,47,81.13Z"/><path class="cls-10" d="M65.59,48.81l-3,5.24-2.42,4.19a6.51,6.51,0,0,1,.94,3.39,6.59,6.59,0,0,1-6.59,6.59h-.08l-4,7-1.74,3h0c-.89,0-1.79-.1-2.68-.18s-1.81-.16-2.71-.27l1-1.78,3-5.24,2.56-4.45A6.58,6.58,0,0,1,54.51,55a6.47,6.47,0,0,1,1.71.22L59.27,50l1-1.77c.89.08,1.79.17,2.68.28h.09C63.9,48.57,64.74,48.68,65.59,48.81Z"/><path class="cls-11" d="M41.71,80.51l-1.07,1.86c-.52-.75-1-1.51-1.52-2.27C40,80.25,40.85,80.39,41.71,80.51Z"/><path class="cls-12" d="M116.76,78.62V41.68h29.63v5.78h-22.6v8.68h19.66v5.77H123.79V72.85h23v5.77Z"/><path class="cls-12" d="M172.21,88.32h-6.86l5.39-11.08L155.88,50.87h7.41l10.27,18.52,0,2.12,10-20.64h7.28Z"/><path class="cls-12" d="M200.47,78.62V50.87h4.8l1,3.7a7.26,7.26,0,0,1,2.36-3.44,8,8,0,0,1,3.68-1.64,11.41,11.41,0,0,1,4.48.16,17.46,17.46,0,0,1,4.84,1.91v7a18.6,18.6,0,0,0-5.87-2.42,8.42,8.42,0,0,0-4.38.16,5.15,5.15,0,0,0-2.77,2.33,8.63,8.63,0,0,0-1.08,4.09V78.62Z"/><path class="cls-13" d="M233.46,78.62V41.68h7V78.62Z"/><path class="cls-13" d="M253.09,41.68h16.12a26,26,0,0,1,8.48,1.23,14.62,14.62,0,0,1,5.85,3.58,14.42,14.42,0,0,1,3.39,5.79,25.93,25.93,0,0,1,1.1,7.87,25.89,25.89,0,0,1-1.1,7.87,14.4,14.4,0,0,1-3.39,5.8,14.73,14.73,0,0,1-5.85,3.58,26.28,26.28,0,0,1-8.48,1.22H253.09ZM281,60.15q0-12.69-11.79-12.69h-9.09V72.85h9.09q5.94,0,8.86-3.09T281,60.15Z"/></svg>